<svg width="112" height="15" viewBox="0 0 112 15" fill="none" xmlns="http://www.w3.org/2000/svg">
<path opacity="0.7" d="M32.4402 6.18786C32.3961 5.97365 32.352 5.77009 32.2968 5.56664C32.0266 4.54848 31.5088 3.60819 30.7868 2.82477C29.4853 1.41093 27.7433 0.693359 25.5378 0.693359C23.3323 0.693359 21.5907 1.39987 20.3007 2.80337C19.733 3.42219 19.2949 4.14249 19.0107 4.92402C18.8693 5.30703 18.7623 5.70122 18.691 6.10215C18.6148 6.55175 18.5781 7.00681 18.5812 7.46244C18.5812 7.62309 18.5918 7.773 18.6033 7.93345C18.6327 8.62255 18.7626 9.3041 18.9891 9.95775C19.2766 10.7761 19.7302 11.53 20.3232 12.1749C21.6132 13.5887 23.3442 14.3063 25.5382 14.3063C27.7543 14.3063 29.511 13.5958 30.8083 12.1749C31.3419 11.5858 31.767 10.9119 32.0653 10.1827C32.3201 9.55251 32.4727 8.88766 32.5173 8.21196V8.20172C32.5279 8.19148 32.5279 8.18032 32.5173 8.18032C32.5394 7.95505 32.5504 7.74115 32.5504 7.50555C32.5429 7.06447 32.5061 6.62432 32.4402 6.18786Z" fill="url(#paint0_linear_533_22712)"/>
<path opacity="0.68" d="M32.5361 7.50551C32.5361 7.73043 32.525 7.95535 32.503 8.18027C32.5135 8.19051 32.5135 8.20167 32.503 8.20167V8.21191C32.4518 8.8867 32.2995 9.55061 32.0509 10.1827C31.7585 10.9149 31.3325 11.5899 30.7936 12.1753C29.4926 13.5892 27.7395 14.3067 25.5234 14.3067C23.3294 14.3067 21.5911 13.5963 20.3085 12.1753C19.7156 11.5305 19.2621 10.7765 18.9748 9.95822C18.743 9.30591 18.613 8.6236 18.5889 7.93392C18.5784 7.77326 18.5669 7.62326 18.5669 7.46291C18.5694 7.00748 18.6063 6.55283 18.6771 6.10262C18.7485 5.70168 18.8555 5.3075 18.9969 4.92449C19.6915 4.46373 21.3453 3.76746 24.3773 4.57104C25.744 4.93967 27.1319 5.22937 28.5338 5.43861C30.32 5.70637 31.6319 5.71712 32.2825 5.56711C32.3376 5.77057 32.3817 5.97412 32.4258 6.17758V6.18782C32.5027 6.62301 32.5396 7.06397 32.5361 7.50551Z" fill="url(#paint1_linear_533_22712)"/>
<path opacity="0.82" d="M18.5987 8.18094C18.5882 8.19118 18.5882 8.20234 18.5987 8.20234V8.21258C18.6499 8.88736 18.8022 9.55127 19.0508 10.1833C19.3432 10.9153 19.7689 11.5902 20.3077 12.1755C21.6087 13.5893 23.3618 14.3069 25.5778 14.3069C27.7719 14.3069 29.5102 13.5964 30.7928 12.1755C31.3858 11.5307 31.8395 10.7767 32.1269 9.95838C32.3587 9.30606 32.4887 8.62375 32.5128 7.93407C32.5128 7.93407 30.9692 6.11322 26.7244 7.2378C25.3577 7.60644 23.9698 7.89614 22.5679 8.10537C20.5616 8.40579 19.1504 8.38439 18.5987 8.18094Z" fill="url(#paint2_linear_533_22712)"/>
<path d="M32.0505 10.1824C31.7581 10.9145 31.3323 11.5893 30.7936 12.1746C29.4926 13.5884 27.7506 14.306 25.5234 14.306C23.3294 14.306 21.5911 13.5955 20.3084 12.1746C19.7154 11.5298 19.2618 10.7759 18.9744 9.95759C18.9744 9.95759 20.4298 8.24384 24.4099 9.30422C25.6938 9.64811 26.997 9.91994 28.313 10.1183C30.2208 10.3967 31.5323 10.3753 32.0505 10.1824Z" fill="url(#paint3_linear_533_22712)"/>
<path d="M0.000460564 3.26046C-0.0055573 2.98091 0.0474538 2.70313 0.156223 2.44425C0.264992 2.18538 0.427213 1.9509 0.632876 1.75528C0.830703 1.55662 1.06845 1.39958 1.33136 1.29389C1.59426 1.18821 1.87673 1.13614 2.16121 1.14093H5.1968L5.99786 1.19212C7.19945 1.34571 8.14807 1.77576 8.84373 2.47203C9.18359 2.7959 9.45224 3.18341 9.63342 3.61109C9.81459 4.03878 9.90452 4.49774 9.89775 4.96018V5.20592C9.88742 5.26008 9.88038 5.31478 9.87667 5.36975C9.82513 6.00639 9.59149 6.61638 9.2021 7.1309L9.24426 7.17186L9.49722 7.33569L9.75019 7.49952L9.85559 7.59167C10.6356 8.20603 11.0256 9.03541 11.0256 10.0798C11.0244 10.4761 10.9604 10.8698 10.8358 11.2471C10.7132 11.6189 10.528 11.9683 10.2877 12.2813C10.0858 12.549 9.85622 12.796 9.60263 13.0185C9.22245 13.3289 8.7865 13.5685 8.31672 13.725C7.7894 13.8912 7.23725 13.9708 6.68298 13.9605H2.11905C1.83403 13.9692 1.55035 13.9189 1.28686 13.813C1.02336 13.7071 0.786064 13.548 0.590714 13.3461C0.190185 12.9366 0.000460564 12.3939 0.000460564 11.6976V3.26046ZM5.96561 5.25711C6.03661 5.20739 6.09327 5.1408 6.13018 5.06371C6.1671 4.98661 6.18301 4.90161 6.17641 4.81683C6.17529 4.72453 6.1518 4.6338 6.10785 4.55197C6.0639 4.47014 6.00073 4.39951 5.92345 4.34582C5.75724 4.21402 5.54764 4.14494 5.33319 4.15127H4.24818V5.49262H5.38653C5.60276 5.48581 5.80887 5.40199 5.96561 5.25711ZM7.24098 10.1407C7.24792 9.95272 7.17997 9.76934 7.05125 9.62877C6.98988 9.56334 6.91495 9.51127 6.83139 9.47597C6.74783 9.44068 6.65752 9.42296 6.5664 9.42399H4.24755V10.8063H6.55586C6.72913 10.8052 6.89527 10.7392 7.01963 10.622C7.09135 10.563 7.14847 10.489 7.18675 10.4056C7.22503 10.3222 7.24349 10.2315 7.24077 10.1402L7.24098 10.1407Z" fill="url(#paint4_linear_533_22712)"/>
<path d="M40.7337 3.03065C40.73 2.76175 40.7811 2.4948 40.8843 2.24523C40.9874 1.99565 41.1404 1.76842 41.3345 1.57668C41.5234 1.37796 41.7535 1.22045 42.0097 1.11454C42.2659 1.00864 42.5423 0.956755 42.8207 0.962319C43.0938 0.958366 43.3648 1.00905 43.6168 1.11122C43.8689 1.21339 44.0966 1.36486 44.2858 1.5562C44.4829 1.742 44.6389 1.96502 44.744 2.21155C44.8492 2.45807 44.9013 2.72288 44.8971 2.9897V8.20067C44.8971 8.79455 45.0552 9.28604 45.3714 9.67513C45.6876 10.0642 46.1303 10.2997 46.71 10.3919C46.8597 10.4167 47.0115 10.427 47.1633 10.4226C47.308 10.4263 47.4528 10.416 47.5954 10.3919C48.1751 10.2997 48.6178 10.0642 48.934 9.68537C49.2502 9.30651 49.4083 8.81503 49.4083 8.20067V2.99994C49.4032 2.73299 49.4549 2.46789 49.5601 2.22123C49.6653 1.97457 49.8217 1.75165 50.0197 1.56644C50.2133 1.37733 50.4436 1.22745 50.6973 1.12548C50.951 1.02352 51.223 0.971507 51.4975 0.97246C51.7721 0.973412 52.0437 1.02731 52.2966 1.13103C52.5495 1.23475 52.7787 1.38623 52.9709 1.57668C53.1668 1.76929 53.3209 1.99813 53.4241 2.24963C53.5273 2.50114 53.5775 2.7702 53.5717 3.04089V8.08804C53.5717 9.65444 53.1185 10.9344 52.212 11.9278C51.3056 12.921 49.9986 13.5456 48.27 13.8016C48.1166 13.8298 47.9618 13.8503 47.8062 13.863C47.582 13.8842 47.3569 13.8944 47.1317 13.8937C46.9525 13.8937 46.7627 13.8835 46.573 13.8732C46.3781 13.8645 46.1843 13.8405 45.9933 13.8016C44.2752 13.5456 42.9577 12.921 42.0618 11.938C41.1659 10.955 40.7126 9.66489 40.7126 8.08804V3.03065H40.7337Z" fill="url(#paint5_linear_533_22712)"/>
<path d="M62.3496 3.03025C62.3433 2.61938 62.4645 2.21619 62.6974 1.87321C62.9301 1.53154 63.2648 1.26715 63.6566 1.1155C63.9035 1.01463 64.1687 0.962422 64.4366 0.961914C65.0584 0.961914 65.6487 1.26909 66.2073 1.89369L70.7918 7.12534V2.99953C70.7912 2.73587 70.845 2.47476 70.9499 2.23158C71.0583 1.97992 71.2199 1.75318 71.4242 1.56603C71.6158 1.37781 71.844 1.22839 72.0955 1.12645C72.347 1.02451 72.6168 0.972063 72.8893 0.972153C73.1624 0.968207 73.4334 1.0189 73.6854 1.12106C73.9375 1.22323 74.1652 1.3747 74.3544 1.56603C74.5525 1.75326 74.709 1.97799 74.8142 2.22632C74.9193 2.47465 74.9709 2.7413 74.9657 3.00977V11.8657L74.9341 12.2753C74.8502 12.7389 74.5908 13.1553 74.2068 13.4426C73.8275 13.7383 73.3546 13.8974 72.8682 13.8931C72.683 13.8945 72.4984 13.8703 72.3201 13.8214C72.1307 13.772 71.9496 13.6962 71.7826 13.5962C71.5871 13.4734 71.4098 13.3252 71.2556 13.1559L66.5235 7.58601V11.8558C66.5302 12.1235 66.4803 12.3898 66.377 12.6381C66.2737 12.8864 66.1191 13.1115 65.9227 13.2995C65.7283 13.4911 65.4952 13.6418 65.2382 13.7421C64.9812 13.8424 64.7056 13.8901 64.4288 13.8825C64.1519 13.8748 63.8796 13.8118 63.6289 13.6974C63.3782 13.583 63.1544 13.4197 62.9715 13.2176C62.5695 12.7943 62.3506 12.237 62.3601 11.6612V3.03025H62.3496Z" fill="url(#paint6_linear_533_22712)"/>
<path d="M84.8615 3.44914C85.9787 2.13851 87.4544 1.35009 89.2673 1.10435C89.7384 1.03683 90.214 1.00261 90.6902 1.00195C91.9656 1.00195 92.988 1.25794 93.7469 1.7699C94.4215 2.22043 94.7587 2.76311 94.7587 3.39794C94.7678 3.77283 94.641 4.13889 94.4004 4.43211C94.2442 4.63699 94.0424 4.80499 93.8101 4.9236C93.5763 5.0305 93.3201 5.08308 93.0618 5.07718C92.8289 5.07619 92.5965 5.05908 92.3661 5.02599C92.1986 5.00369 92.033 4.96947 91.8707 4.9236C91.6178 4.83144 91.4175 4.75977 91.2699 4.70857C91.1278 4.6552 90.9789 4.62075 90.8272 4.60618C90.6797 4.59594 90.4794 4.57546 90.237 4.57546C89.5882 4.56298 88.955 4.76922 88.4451 5.1591C87.9392 5.54819 87.6125 6.11135 87.4544 6.83834C87.4221 7.02448 87.4044 7.21275 87.4017 7.4015C87.4044 7.59025 87.4221 7.77852 87.4544 7.96466C87.7389 9.44936 88.6032 10.1968 90.0156 10.1968C90.5953 10.1968 91.291 10.0637 92.0921 9.78725L92.2712 9.73606C92.4885 9.68467 92.7117 9.66058 92.9353 9.66438C93.515 9.66438 93.9682 9.84869 94.3055 10.2071C94.5951 10.4985 94.7575 10.8874 94.7587 11.2924C94.7457 11.6827 94.6136 12.0605 94.3793 12.3778C94.2024 12.6229 93.9809 12.8345 93.7258 13.0024C93.3865 13.2265 93.0178 13.4056 92.6296 13.5348C92.0183 13.7703 91.2805 13.883 90.4267 13.883C89.9784 13.8825 89.5309 13.8483 89.0881 13.7806C87.8888 13.6073 86.7599 13.1226 85.8206 12.3778C85.4428 12.0737 85.0968 11.7342 84.7877 11.3641C83.7969 10.1149 83.3015 8.7838 83.3015 7.38102C83.3098 6.69078 83.4454 6.00758 83.702 5.36388C83.9873 4.67267 84.3781 4.02717 84.8615 3.44914Z" fill="url(#paint7_linear_533_22712)"/>
<path d="M103.093 3.00967C103.085 2.73555 103.133 2.46257 103.237 2.20733C103.34 1.95209 103.496 1.71993 103.694 1.52498C103.891 1.3317 104.126 1.17936 104.385 1.07726C104.644 0.975151 104.922 0.92542 105.201 0.931101H110.197C110.429 0.929814 110.658 0.975606 110.871 1.06554C111.083 1.15547 111.274 1.28755 111.431 1.4533C111.602 1.61979 111.736 1.81799 111.827 2.03611C111.917 2.25424 111.962 2.48782 111.958 2.72297C111.96 2.95786 111.915 3.1909 111.824 3.40875C111.734 3.62661 111.6 3.82502 111.431 3.99264C111.269 4.16537 111.073 4.30303 110.853 4.39656C110.633 4.49009 110.395 4.53738 110.155 4.53532H107.288V5.63093H109.649C109.909 5.6287 110.167 5.6764 110.407 5.7713C110.648 5.8662 110.867 6.0064 111.051 6.18385C111.227 6.33284 111.367 6.5172 111.461 6.7241C111.556 6.931 111.603 7.15546 111.599 7.38184C111.6 7.61479 111.551 7.84537 111.455 8.05875C111.359 8.27214 111.218 8.46359 111.041 8.62079C110.67 8.95345 110.185 9.1397 109.681 9.14299H107.288V10.2488H110.018C110.277 10.2433 110.533 10.2875 110.774 10.3789C111.015 10.4703 111.234 10.607 111.42 10.7813C111.602 10.9409 111.747 11.1357 111.847 11.353C111.947 11.5704 111.999 11.8056 112 12.0436C112.001 12.2816 111.951 12.5172 111.853 12.7353C111.755 12.9534 111.611 13.1493 111.431 13.3104C111.071 13.6536 110.586 13.8449 110.081 13.8428H105.18C104.775 13.8403 104.381 13.715 104.052 13.4844C103.698 13.2423 103.421 12.909 103.251 12.522C103.143 12.2723 103.086 12.0045 103.083 11.7335V3.00967H103.093Z" fill="url(#paint8_linear_533_22712)"/>
<defs>
<linearGradient id="paint0_linear_533_22712" x1="25.5657" y1="0.693359" x2="27.0548" y2="7.76075" gradientUnits="userSpaceOnUse">
<stop stop-color="white"/>
<stop offset="0.475" stop-color="#EEF1FF"/>
<stop offset="1" stop-color="#ABE2FF"/>
</linearGradient>
<linearGradient id="paint1_linear_533_22712" x1="25.1325" y1="3.92022" x2="25.4985" y2="12.7847" gradientUnits="userSpaceOnUse">
<stop stop-color="white"/>
<stop offset="0.337" stop-color="#EEF1FF"/>
<stop offset="1" stop-color="#4D22B5"/>
</linearGradient>
<linearGradient id="paint2_linear_533_22712" x1="26.4428" y1="6.34315" x2="26.188" y2="14.3272" gradientUnits="userSpaceOnUse">
<stop stop-color="white"/>
<stop offset="0.364" stop-color="#EEF1FF"/>
<stop offset="1" stop-color="#003CFF"/>
</linearGradient>
<linearGradient id="paint3_linear_533_22712" x1="25.0417" y1="9.84043" x2="25.0242" y2="16.3171" gradientUnits="userSpaceOnUse">
<stop stop-color="white"/>
<stop offset="0.475" stop-color="#EEF1FF"/>
<stop offset="1" stop-color="#61A0FF"/>
</linearGradient>
<linearGradient id="paint4_linear_533_22712" x1="5.51278" y1="1.14062" x2="5.51278" y2="13.9615" gradientUnits="userSpaceOnUse">
<stop stop-color="white"/>
<stop offset="0.475" stop-color="#EEF1FF"/>
<stop offset="1" stop-color="white"/>
</linearGradient>
<linearGradient id="paint5_linear_533_22712" x1="47.1424" y1="0.961914" x2="47.1424" y2="13.8937" gradientUnits="userSpaceOnUse">
<stop stop-color="white"/>
<stop offset="0.475" stop-color="#EEF1FF"/>
<stop offset="1" stop-color="white"/>
</linearGradient>
<linearGradient id="paint6_linear_533_22712" x1="68.6577" y1="0.961914" x2="68.6577" y2="13.8932" gradientUnits="userSpaceOnUse">
<stop stop-color="white"/>
<stop offset="0.475" stop-color="#EEF1FF"/>
<stop offset="1" stop-color="white"/>
</linearGradient>
<linearGradient id="paint7_linear_533_22712" x1="89.0304" y1="1.00195" x2="89.0304" y2="13.883" gradientUnits="userSpaceOnUse">
<stop stop-color="white"/>
<stop offset="0.475" stop-color="#EEF1FF"/>
<stop offset="1" stop-color="white"/>
</linearGradient>
<linearGradient id="paint8_linear_533_22712" x1="107.541" y1="0.930664" x2="107.541" y2="13.8428" gradientUnits="userSpaceOnUse">
<stop stop-color="white"/>
<stop offset="0.475" stop-color="#EEF1FF"/>
<stop offset="1" stop-color="white"/>
</linearGradient>
</defs>
</svg>
